<svg width="229" height="64" viewBox="0 0 229 64" fill="none" xmlns="http://www.w3.org/2000/svg">
<path d="M1.57038 31.2492C1.57038 27.9499 2.28419 25.0153 3.71182 22.4456C5.13944 19.8441 7.12224 17.8296 9.66024 16.402C12.23 14.9426 15.1328 14.213 18.3687 14.213C22.3343 14.213 25.7289 15.2599 28.5524 17.3537C31.3759 19.4476 33.2636 22.3028 34.2153 25.9195H25.2689C24.6027 24.5236 23.6509 23.4608 22.4137 22.7311C21.2081 22.0014 19.8281 21.6366 18.2736 21.6366C15.7673 21.6366 13.7369 22.509 12.1824 24.2539C10.6278 25.9988 9.85059 28.3306 9.85059 31.2492C9.85059 34.1679 10.6278 36.4997 12.1824 38.2446C13.7369 39.9895 15.7673 40.8619 18.2736 40.8619C19.8281 40.8619 21.2081 40.4971 22.4137 39.7674C23.6509 39.0377 24.6027 37.9749 25.2689 36.579H34.2153C33.2636 40.1957 31.3759 43.0509 28.5524 45.1448C25.7289 47.2069 22.3343 48.2379 18.3687 48.2379C15.1328 48.2379 12.23 47.5241 9.66024 46.0965C7.12224 44.6372 5.13944 42.6226 3.71182 40.0529C2.28419 37.4832 1.57038 34.5486 1.57038 31.2492ZM96.5726 48L89.6249 35.3893H87.6738V48H79.5363V14.5937H93.1939C95.8271 14.5937 98.0637 15.0537 99.9037 15.9737C101.776 16.8937 103.171 18.1627 104.091 19.7807C105.011 21.3669 105.471 23.1435 105.471 25.1105C105.471 27.3312 104.837 29.314 103.568 31.0589C102.331 32.8038 100.491 34.041 98.0478 34.7707L105.757 48H96.5726ZM87.6738 29.6313H92.718C94.2091 29.6313 95.3195 29.2664 96.0492 28.5368C96.8106 27.8071 97.1913 26.776 97.1913 25.4436C97.1913 24.1746 96.8106 23.1753 96.0492 22.4456C95.3195 21.7159 94.2091 21.3511 92.718 21.3511H87.6738V29.6313ZM127.616 48L120.668 35.3893H118.717V48H110.58V14.5937H124.237C126.87 14.5937 129.107 15.0537 130.947 15.9737C132.819 16.8937 134.215 18.1627 135.135 19.7807C136.055 21.3669 136.515 23.1435 136.515 25.1105C136.515 27.3312 135.88 29.314 134.611 31.0589C133.374 32.8038 131.534 34.041 129.091 34.7707L136.8 48H127.616ZM118.717 29.6313H123.761C125.252 29.6313 126.363 29.2664 127.092 28.5368C127.854 27.8071 128.235 26.776 128.235 25.4436C128.235 24.1746 127.854 23.1753 127.092 22.4456C126.363 21.7159 125.252 21.3511 123.761 21.3511H118.717V29.6313ZM149.76 21.1131V27.8705H160.658V34.1521H149.76V41.4805H162.086V48H141.623V14.5937H162.086V21.1131H149.76ZM165.988 31.2492C165.988 27.9499 166.702 25.0153 168.13 22.4456C169.558 19.8441 171.54 17.8296 174.078 16.402C176.648 14.9426 179.551 14.213 182.787 14.213C186.752 14.213 190.147 15.2599 192.971 17.3537C195.794 19.4476 197.682 22.3028 198.633 25.9195H189.687C189.021 24.5236 188.069 23.4608 186.832 22.7311C185.626 22.0014 184.246 21.6366 182.692 21.6366C180.185 21.6366 178.155 22.509 176.6 24.2539C175.046 25.9988 174.269 28.3306 174.269 31.2492C174.269 34.1679 175.046 36.4997 176.6 38.2446C178.155 39.9895 180.185 40.8619 182.692 40.8619C184.246 40.8619 185.626 40.4971 186.832 39.7674C188.069 39.0377 189.021 37.9749 189.687 36.579H198.633C197.682 40.1957 195.794 43.0509 192.971 45.1448C190.147 47.2069 186.752 48.2379 182.787 48.2379C179.551 48.2379 176.648 47.5241 174.078 46.0965C171.54 44.6372 169.558 42.6226 168.13 40.0529C166.702 37.4832 165.988 34.5486 165.988 31.2492ZM227.648 14.5937V21.1131H218.797V48H210.66V21.1131H201.808V14.5937H227.648Z" fill="white"/>
<path d="M55.498 13.2388C45.7796 13.2388 37.873 21.1453 37.873 30.8637C37.873 40.5821 45.7796 48.4887 55.498 48.4887C65.2164 48.4887 73.123 40.5821 73.123 30.8637C73.123 21.1453 65.2164 13.2388 55.498 13.2388ZM51.9748 38.6416L45.4306 32.1116L47.9193 29.6159L51.9712 33.6608L61.3019 24.3302L63.7941 26.8223L51.9748 38.6416Z" fill="#37CFA1"/>
</svg>
