<svg width="280" height="64" viewBox="0 0 280 64" fill="none" xmlns="http://www.w3.org/2000/svg">
<path d="M11.6916 15.4942V49H3.52994V15.4942H11.6916ZM47.5801 49H39.4184L25.7679 28.3333V49H17.6063V15.4942H25.7679L39.4184 36.2563V15.4942H47.5801V49ZM52.1121 32.1994C52.1121 28.8902 52.8281 25.9469 54.2599 23.3695C55.6918 20.7603 57.6805 18.7398 60.2261 17.3079C62.8034 15.8442 65.7149 15.1124 68.9605 15.1124C72.9379 15.1124 76.3426 16.1624 79.1745 18.2625C82.0064 20.3626 83.8997 23.2263 84.8542 26.8537H75.8812C75.213 25.4537 74.2584 24.3877 73.0174 23.6559C71.8083 22.924 70.4242 22.5581 68.865 22.5581C66.3513 22.5581 64.3149 23.4331 62.7557 25.1832C61.1966 26.9333 60.417 29.272 60.417 32.1994C60.417 35.1268 61.1966 37.4655 62.7557 39.2155C64.3149 40.9656 66.3513 41.8406 68.865 41.8406C70.4242 41.8406 71.8083 41.4747 73.0174 40.7429C74.2584 40.011 75.213 38.9451 75.8812 37.545H84.8542C83.8997 41.1724 82.0064 44.0362 79.1745 46.1363C76.3426 48.2045 72.9379 49.2386 68.9605 49.2386C65.7149 49.2386 62.8034 48.5227 60.2261 47.0908C57.6805 45.6271 55.6918 43.6066 54.2599 41.0293C52.8281 38.4519 52.1121 35.5086 52.1121 32.1994ZM147.397 49L140.429 36.3518H138.472V49H130.31V15.4942H144.008C146.649 15.4942 148.893 15.9556 150.738 16.8784C152.616 17.8011 154.016 19.0739 154.938 20.6967C155.861 22.2876 156.323 24.0695 156.323 26.0423C156.323 28.2697 155.686 30.2584 154.413 32.0085C153.172 33.7585 151.327 34.9995 148.877 35.7313L156.609 49H147.397ZM138.472 30.5766H143.531C145.027 30.5766 146.14 30.2107 146.872 29.4788C147.636 28.747 148.018 27.7128 148.018 26.3764C148.018 25.1037 147.636 24.1014 146.872 23.3695C146.14 22.6377 145.027 22.2717 143.531 22.2717H138.472V30.5766ZM178.533 49L171.564 36.3518H169.608V49H161.446V15.4942H175.144C177.785 15.4942 180.028 15.9556 181.874 16.8784C183.751 17.8011 185.151 19.0739 186.074 20.6967C186.997 22.2876 187.458 24.0695 187.458 26.0423C187.458 28.2697 186.822 30.2584 185.549 32.0085C184.308 33.7585 182.463 34.9995 180.013 35.7313L187.745 49H178.533ZM169.608 30.5766H174.667C176.162 30.5766 177.276 30.2107 178.008 29.4788C178.772 28.747 179.153 27.7128 179.153 26.3764C179.153 25.1037 178.772 24.1014 178.008 23.3695C177.276 22.6377 176.162 22.2717 174.667 22.2717H169.608V30.5766ZM200.743 22.0331V28.8106H211.673V35.1109H200.743V42.4611H213.105V49H192.582V15.4942H213.105V22.0331H200.743ZM217.02 32.1994C217.02 28.8902 217.736 25.9469 219.167 23.3695C220.599 20.7603 222.588 18.7398 225.134 17.3079C227.711 15.8442 230.622 15.1124 233.868 15.1124C237.845 15.1124 241.25 16.1624 244.082 18.2625C246.914 20.3626 248.807 23.2263 249.762 26.8537H240.789C240.121 25.4537 239.166 24.3877 237.925 23.6559C236.716 22.924 235.332 22.5581 233.773 22.5581C231.259 22.5581 229.222 23.4331 227.663 25.1832C226.104 26.9333 225.325 29.272 225.325 32.1994C225.325 35.1268 226.104 37.4655 227.663 39.2155C229.222 40.9656 231.259 41.8406 233.773 41.8406C235.332 41.8406 236.716 41.4747 237.925 40.7429C239.166 40.011 240.121 38.9451 240.789 37.545H249.762C248.807 41.1724 246.914 44.0362 244.082 46.1363C241.25 48.2045 237.845 49.2386 233.868 49.2386C230.622 49.2386 227.711 48.5227 225.134 47.0908C222.588 45.6271 220.599 43.6066 219.167 41.0293C217.736 38.4519 217.02 35.5086 217.02 32.1994ZM278.863 15.4942V22.0331H269.985V49H261.824V22.0331H252.946V15.4942H278.863Z" fill="white"/>
<path d="M111.16 14.1831C101.413 14.1831 93.4829 22.1132 93.4829 31.8605C93.4829 41.6079 101.413 49.5379 111.16 49.5379C120.908 49.5379 128.838 41.6079 128.838 31.8605C128.838 22.1132 120.908 14.1831 111.16 14.1831ZM118.597 36.7978L116.098 39.2974L111.16 34.3601L106.223 39.2974L103.723 36.7978L108.661 31.8605L103.723 26.9232L106.223 24.4236L111.16 29.3609L116.098 24.4236L118.597 26.9232L113.66 31.8605L118.597 36.7978Z" fill="#C80C0C"/>
</svg>
